# xmcd
#
# Track frame offsets: 
#        150
#        12370
#        29067
#        42152
#        60800
#        75507
#        89335
#        105435
#        124167
#        141917
#        162560
#        178952
#        196062
#        213455
#        230725
#        248007
#
# Disc length: 3563 seconds
#
# Revision: 3
# Processed by: cddbd v1.5.2PL0 Copyright (c) Steve Scherf et al.
# Submitted via: ExactAudioCopyFreeDBPlugin 1.0
#
DISCID=d70de910
DTITLE=Bruno and Marrone - Grandes Sucessos
DYEAR=2005
DGENRE=Sertanejo
TTITLE0=Dormi na Praça ( Ao Vivo)
TTITLE1=Deixa
TTITLE2=Feriado Nacional (Ao Vivo)
TTITLE3=Agora Vai
TTITLE4=Programa de Fim de Semana
TTITLE5=Amor de Carnaval (Ao Vivo)
TTITLE6=Ligação Urbana (Ao Vivo)
TTITLE7=Menina (Querida) (Ao Vivo)
TTITLE8=Vai dar Namoro
TTITLE9=Será (Sera)
TTITLE10=Te Amar foi Ilusão (Ao Vivo)
TTITLE11=Paixão Demais
TTITLE12=Nova Flor (Os Homens não devem chorar) (Ao Vivo)
TTITLE13=Rabo de Saia
TTITLE14=Inevitável
TTITLE15=Meu Jeito de Sentir (Mi forma de sentir)
EXTD=Maxximum
EXTT0=
EXTT1=
EXTT2=
EXTT3=
EXTT4=
EXTT5=
EXTT6=
EXTT7=
EXTT8=
EXTT9=
EXTT10=
EXTT11=
EXTT12=
EXTT13=
EXTT14=
EXTT15=
PLAYORDER=
